<svg width="32" height="32" viewBox="0 0 32 32" fill="none" xmlns="http://www.w3.org/2000/svg">
<path opacity="0.9" d="M24.3288 21.1686C23.2833 20.1365 21.9781 20.1365 20.9393 21.1686C20.1469 21.9544 19.3544 22.7401 18.5753 23.5392C18.3622 23.7589 18.1824 23.8055 17.9227 23.659C17.41 23.3794 16.864 23.153 16.3712 22.8467C14.0738 21.4017 12.1493 19.5439 10.4446 17.453C9.59892 16.4142 8.84645 15.3021 8.32038 14.0503C8.21384 13.7972 8.23381 13.6308 8.44024 13.4243C9.23267 12.6586 10.0051 11.8728 10.7842 11.0871C11.8697 9.995 11.8697 8.71649 10.7776 7.61777C10.1583 6.99184 9.53899 6.37922 8.9197 5.75328C8.28043 5.11403 7.64782 4.46812 7.00189 3.83552C5.95641 2.81671 4.65124 2.81671 3.61242 3.84218C2.81334 4.62793 2.04755 5.43366 1.23514 6.20609C0.482666 6.91859 0.1031 7.79091 0.023191 8.80972C-0.103331 10.4678 0.302872 12.0326 0.875551 13.5575C2.04755 16.7138 3.83217 19.5172 5.99637 22.0876C8.9197 25.5635 12.409 28.3136 16.491 30.298C18.3289 31.1903 20.2334 31.8761 22.3044 31.9893C23.7294 32.0692 24.968 31.7097 25.9602 30.5976C26.6395 29.8385 27.4052 29.146 28.1244 28.4202C29.1899 27.3414 29.1965 26.0363 28.1377 24.9709C26.8725 23.699 25.6006 22.4338 24.3288 21.1686ZM23.0569 15.8615L25.5141 15.442C25.1278 13.1846 24.0624 11.1403 22.4442 9.51556C20.7329 7.80422 18.5687 6.72548 16.1847 6.39254L15.8385 8.86299C17.683 9.12268 19.3611 9.95505 20.6863 11.2802C21.9382 12.532 22.7572 14.1169 23.0569 15.8615ZM26.8992 5.18062C24.0624 2.34393 20.4732 0.552688 16.511 0L16.1648 2.47045C19.5875 2.94989 22.6906 4.50141 25.1412 6.94523C27.4652 9.26918 28.9901 12.2058 29.5428 15.4353L32 15.0158C31.3541 11.2735 29.5894 7.87747 26.8992 5.18062Z" fill="white"/>
</svg>
